<svg xmlns="http://www.w3.org/2000/svg" version="1.1" xmlns:xlink="http://www.w3.org/1999/xlink" xmlns:svgjs="http://svgjs.dev/svgjs" width="128" height="128" viewBox="0 0 128 128"><g transform="matrix(0.8046875,0,0,0.8046875,12.333870967741937,12.333870967741937)"><svg viewBox="0 0 155 155" data-background-color="#ffffff" preserveAspectRatio="xMidYMid meet" height="128" width="128" xmlns="http://www.w3.org/2000/svg" xmlns:xlink="http://www.w3.org/1999/xlink"><g id="tight-bounds" transform="matrix(1,0,0,1,0.25,0.25)"><svg viewBox="0 0 154.5 154.5" height="154.5" width="154.5"><g><svg></svg></g><g><svg viewBox="0 0 154.5 154.5" height="154.5" width="154.5"><g transform="matrix(1,0,0,1,44.464942346938784,43.83165)"><svg viewBox="0 0 65.57011530612243 66.8367" height="66.8367" width="65.57011530612243"><g><svg viewBox="0 0 65.57011530612243 66.8367" height="66.8367" width="65.57011530612243"><g><svg viewBox="0 0 65.57011530612243 66.8367" height="66.8367" width="65.57011530612243"><g><svg viewBox="0 0 65.57011530612243 66.8367" height="66.8367" width="65.57011530612243"><g><svg viewBox="0 0 65.57011530612243 66.8367" height="66.8367" width="65.57011530612243"><g transform="matrix(1,0,0,1,0,0)"><svg width="65.57011530612243" viewBox="0.3 -34.3 33.650000000000006 34.3" height="66.8367" data-palette-color="#ff0000"><path d="M0.3 0L13.65-34.3 20.65-34.3 33.95 0 28.05 0 24.9-8.35 9.1-8.35 6 0 0.3 0ZM10.85-13.1L23.1-13.1 19.35-23.15 17.1-29.55 16.85-29.55 16.4-28.25Q15.55-25.65 14.65-23.25L14.65-23.25 10.85-13.1Z" opacity="1" transform="matrix(1,0,0,1,0,0)" fill="#ff0000" class="undefined-text-0" data-fill-palette-color="primary" id="text-0"></path></svg></g></svg></g></svg></g></svg></g></svg></g></svg></g><g mask="url(#44976d9d-a2fe-4c94-b9eb-305bb47050a5)"><g transform="matrix(1.6944444444444444, 0, 0, 1.6944444444444444, 10.827777777777769, 1)"><svg xmlns="http://www.w3.org/2000/svg" xmlns:xlink="http://www.w3.org/1999/xlink" version="1.1" x="0" y="0" viewBox="10.1 5.2 78.4 90" enable-background="new 0 0 100 100" xml:space="preserve" height="90" width="78.4" class="icon-none" data-fill-palette-color="accent" id="none"><polygon fill-rule="evenodd" clip-rule="evenodd" fill="#ed2647" points="88.5,28.2 68.4,59.9 68.5,22.3 " data-fill-palette-color="accent"></polygon><polygon fill-rule="evenodd" clip-rule="evenodd" fill="#ed2647" points="49.8,5.2 67.2,38.5 34.7,19.6 " data-fill-palette-color="accent"></polygon><polygon fill-rule="evenodd" clip-rule="evenodd" fill="#ed2647" points="67.8,38.3 67.8,22.3 60.8,24.5 " data-fill-palette-color="accent"></polygon><polygon fill-rule="evenodd" clip-rule="evenodd" fill="#ed2647" points="88.2,73.2 50.6,71.7 83.2,52.9 " data-fill-palette-color="accent"></polygon><polygon fill-rule="evenodd" clip-rule="evenodd" fill="#ed2647" points="69.1,60.3 82.8,52.3 77.4,47.4 " data-fill-palette-color="accent"></polygon><polygon fill-rule="evenodd" clip-rule="evenodd" fill="#ed2647" points="48.7,95.2 31.5,61.9 63.9,80.9 " data-fill-palette-color="accent"></polygon><polygon fill-rule="evenodd" clip-rule="evenodd" fill="#ed2647" points="50.5,72.2 64.2,80.2 65.8,73.1 " data-fill-palette-color="accent"></polygon><polygon fill-rule="evenodd" clip-rule="evenodd" fill="#ed2647" points="10.1,72 30.5,40.4 30.1,78 " data-fill-palette-color="accent"></polygon><polygon fill-rule="evenodd" clip-rule="evenodd" fill="#ed2647" points="30.9,62.1 30.8,78 37.8,75.8 " data-fill-palette-color="accent"></polygon><polygon fill-rule="evenodd" clip-rule="evenodd" fill="#ed2647" points="11,27 48.5,28.9 15.8,47.3 " data-fill-palette-color="accent"></polygon><polygon fill-rule="evenodd" clip-rule="evenodd" fill="#ed2647" points="30,40.1 16.1,47.9 21.5,52.9 " data-fill-palette-color="accent"></polygon><polygon fill-rule="evenodd" clip-rule="evenodd" fill="#ed2647" points="48.2,28.3 34.5,20.2 32.9,27.4 " data-fill-palette-color="accent"></polygon></svg></g></g></svg></g><defs><mask id="44976d9d-a2fe-4c94-b9eb-305bb47050a5"><rect width="250" height="250" fill="white"></rect><rect width="72.12712683673467" height="98.3937815784" fill="black" x="88.93643658163266" y="75.8031092108" id="transform-me" transform="matrix(1,0,0,1,-47.75,-47.75)"></rect></mask></defs></svg><rect width="154.5" height="154.5" fill="none" stroke="none" visibility="hidden"></rect></g></svg></g></svg>