<svg xmlns="http://www.w3.org/2000/svg" version="1.1" xmlns:xlink="http://www.w3.org/1999/xlink" xmlns:svgjs="http://svgjs.dev/svgjs" width="2000" height="1247" viewBox="0 0 2000 1247"><g transform="matrix(1,0,0,1,-1.2121212121212466,0.504858299595071)"><svg viewBox="0 0 396 247" data-background-color="#ffffff" preserveAspectRatio="xMidYMid meet" height="1247" width="2000" xmlns="http://www.w3.org/2000/svg" xmlns:xlink="http://www.w3.org/1999/xlink"><g id="tight-bounds" transform="matrix(1,0,0,1,0.2400000000000091,-0.09999999999999432)"><svg viewBox="0 0 395.52 247.2" height="247.2" width="395.52"><g><svg></svg></g><g><svg viewBox="0 0 395.52 247.2" height="247.2" width="395.52"><g transform="matrix(1,0,0,1,39.55199999999999,82.0578759565176)"><svg viewBox="0 0 316.416 83.08424808696478" height="83.08424808696478" width="316.416"><g><svg viewBox="0 0 317.99807999999996 83.49966932739959" height="83.08424808696478" width="316.416"><g><svg viewBox="0 0 317.99807999999996 83.49966932739959" height="83.49966932739959" width="317.99807999999996"><g id="textblocktransform"><svg viewBox="0 0 317.99807999999996 83.49966932739959" height="83.49966932739959" width="317.99807999999996" id="textblock"><g><rect width="317.99807999999996" height="4.576264508981959" x="0" y="56.13619844228495" fill="#ff0000" opacity="1" stroke-width="0" stroke="transparent" fill-opacity="1" class="rect-o-0" data-fill-palette-color="primary" rx="1%" id="o-0" data-palette-color="#ff0000"></rect></g><g transform="matrix(1,0,0,1,0.7910399999999811,0)"><svg viewBox="0 0 316.416 50.74531093170411" height="50.74531093170411" width="316.416"><g transform="matrix(1,0,0,1,0,0)"><svg width="316.416" viewBox="0.30000001192092896 -36.150001525878906 229.12998962402344 36.75" height="50.74531093170411" data-palette-color="#ff0000"><path d="M0.3 0L13.65-34.3 20.65-34.3 33.95 0 28.05 0 24.9-8.35 9.1-8.35 6 0 0.3 0ZM10.85-13.1L23.1-13.1 19.35-23.15 17.1-29.55 16.85-29.55 16.4-28.25Q15.55-25.65 14.65-23.25L14.65-23.25 10.85-13.1ZM37.6 0L37.6-26.3 41.75-26.3 42.25-22.25 42.55-22.25Q44.35-26.9 48.6-26.9L48.6-26.9Q50-26.9 51.05-26.5L51.05-26.5 51.05-21.6 49.2-21.6Q46.25-21.6 44.5-19.9 42.75-18.2 42.75-14.7L42.75-14.7 42.75 0 37.6 0ZM61.4 0.55Q58.4 0.55 57.05-1.18 55.7-2.9 55.7-5.45L55.7-5.45 55.7-22.05 52.5-22.05 52.5-26.3 55.75-26.3 56.75-33.65 60.85-33.65 60.85-26.3 65.3-26.3 65.3-22.05 60.85-22.05 60.85-5.95Q60.85-3.65 63-3.65L63-3.65 65.3-3.65 65.3-0.15Q64.65 0.15 63.52 0.35 62.4 0.55 61.4 0.55L61.4 0.55ZM69.84-30.9L69.84-36.15 74.94-36.15 74.94-30.9 69.84-30.9ZM69.84 0L69.84-26.3 74.99-26.3 74.99 0 69.84 0ZM82.14 0L82.14-34.3 106.64-34.3 106.64-29.55 87.69-29.55 87.69-19.4 104.79-19.4 104.79-14.65 87.69-14.65 87.69 0 82.14 0ZM120.54 0.6Q112.19 0.6 112.19-8.45L112.19-8.45 112.19-26.3 117.34-26.3 117.34-9.1Q117.34-6.15 118.66-4.98 119.99-3.8 122.54-3.8L122.54-3.8Q124.29-3.8 125.79-4.67 127.29-5.55 128.16-7.15 129.04-8.75 129.04-10.85L129.04-10.85 129.04-26.3 134.19-26.3 134.19 0 130.04 0 129.54-3.5 129.19-3.5Q127.74-1.5 125.54-0.45 123.34 0.6 120.54 0.6L120.54 0.6ZM150.44 0.6Q145.03 0.6 142.21-1.65 139.39-3.9 139.39-7.3L139.39-7.3Q139.39-7.85 139.41-8.03 139.44-8.2 139.44-8.25L139.44-8.25 144.49-8.25 144.49-7.8Q144.49-5.65 146.24-4.58 147.99-3.5 150.69-3.5L150.69-3.5Q153.09-3.5 154.71-4.4 156.34-5.3 156.34-6.95L156.34-6.95Q156.34-8.25 155.44-9.08 154.53-9.9 153.24-10.38 151.94-10.85 149.49-11.5L149.49-11.5Q146.49-12.25 144.59-13 142.69-13.75 141.36-15.25 140.03-16.75 140.03-19.25L140.03-19.25Q140.03-22.85 142.99-24.88 145.94-26.9 150.84-26.9L150.84-26.9Q153.89-26.9 156.16-25.98 158.44-25.05 159.66-23.4 160.89-21.75 160.89-19.7L160.89-19.7 160.84-18.7 155.78-18.7 155.78-19.05Q155.78-20.7 154.46-21.73 153.14-22.75 150.39-22.75L150.39-22.75Q147.74-22.75 146.51-21.83 145.28-20.9 145.28-19.65L145.28-19.65Q145.28-18.1 146.78-17.35 148.28-16.6 151.53-15.85L151.53-15.85Q154.69-15.1 156.69-14.33 158.69-13.55 160.14-11.93 161.59-10.3 161.59-7.6L161.59-7.6Q161.59-3.4 158.56-1.4 155.53 0.6 150.44 0.6L150.44 0.6ZM166.83-30.9L166.83-36.15 171.93-36.15 171.93-30.9 166.83-30.9ZM166.83 0L166.83-26.3 171.98-26.3 171.98 0 166.83 0ZM189.68 0.6Q183.43 0.6 180.31-2.78 177.18-6.15 177.18-13.15L177.18-13.15Q177.18-20.15 180.31-23.53 183.43-26.9 189.68-26.9L189.68-26.9Q195.93-26.9 199.08-23.53 202.23-20.15 202.23-13.15L202.23-13.15Q202.23-6.15 199.08-2.78 195.93 0.6 189.68 0.6L189.68 0.6ZM189.68-3.65Q193.48-3.65 195.2-5.88 196.93-8.1 196.93-12.9L196.93-12.9 196.93-13.4Q196.93-18.2 195.2-20.43 193.48-22.65 189.68-22.65L189.68-22.65Q185.93-22.65 184.2-20.43 182.48-18.2 182.48-13.4L182.48-13.4 182.48-12.9Q182.48-8.1 184.2-5.88 185.93-3.65 189.68-3.65L189.68-3.65ZM207.43 0L207.43-26.3 211.58-26.3 212.08-22.8 212.43-22.8Q213.83-24.8 216.05-25.85 218.28-26.9 221.08-26.9L221.08-26.9Q229.43-26.9 229.43-17.85L229.43-17.85 229.43 0 224.28 0 224.28-17.2Q224.28-20.15 222.95-21.33 221.63-22.5 219.08-22.5L219.08-22.5Q217.33-22.5 215.83-21.63 214.33-20.75 213.45-19.15 212.58-17.55 212.58-15.45L212.58-15.45 212.58 0 207.43 0Z" opacity="1" transform="matrix(1,0,0,1,0,0)" fill="#ff0000" class="undefined-text-0" data-fill-palette-color="primary" id="text-0"></path></svg></g></svg></g><g transform="matrix(1,0,0,1,0,66.10335046184775)"><svg viewBox="0 0 185.7678336 17.396318865551837" height="17.396318865551837" width="185.7678336"><g transform="matrix(1,0,0,1,0,0)"><svg width="185.7678336" viewBox="2.299999952316284 -33.599998474121094 478.34002685546875 44.79999923706055" height="17.396318865551837" data-palette-color="#ffffff"><path d="M9.2-0.5L9.2-0.5 9.45-0.5 9.45 0 2.3 0 2.3-0.5 2.55-0.5Q2.95-0.5 3.25-0.78 3.55-1.05 3.78-1.45 4-1.85 4.1-2.3 4.2-2.75 4.2-3.15L4.2-3.15 4.2-29.9Q4.2-30.25 4.1-30.7 4-31.15 3.8-31.55 3.6-31.95 3.28-32.23 2.95-32.5 2.55-32.5L2.55-32.5 2.3-32.5 2.3-33 21.5-33 21.5-28.35 21-28.35Q21-29.5 20.23-30.38 19.45-31.25 17.8-31.25L17.8-31.25 7.55-31.25 7.55-18.6 15.85-18.6Q17-18.6 17.78-19.3 18.55-20 18.55-20.95L18.55-20.95 19.05-20.95 19.05-14.7 18.55-14.7Q18.55-15.6 17.8-16.25 17.05-16.9 15.85-16.9L15.85-16.9 7.55-16.9 7.55-3.15Q7.55-2.75 7.65-2.3 7.75-1.85 7.98-1.45 8.2-1.05 8.5-0.78 8.8-0.5 9.2-0.5ZM41.9-21.55L41.9-3.25Q41.9-2.9 42-2.43 42.1-1.95 42.27-1.53 42.45-1.1 42.75-0.8 43.05-0.5 43.45-0.5L43.45-0.5 43.45 0 38.6 0 38.6-2.75Q37.85-1.65 36.4-0.6 34.95 0.45 32.65 0.45L32.65 0.45Q29.75 0.45 28.05-0.55 26.35-1.55 25.45-3.1 24.55-4.65 24.3-6.48 24.05-8.3 24.05-9.9L24.05-9.9 24.05-17.05Q24.05-17.5 24.02-17.93 24-18.35 23.82-18.7 23.65-19.05 23.3-19.28 22.95-19.5 22.3-19.5L22.3-19.5 22.3-19.95 27.35-21.55 27.35-8.8Q27.35-5 29-3.2 30.65-1.4 33.05-1.4L33.05-1.4Q34.35-1.4 35.37-1.98 36.4-2.55 37.12-3.35 37.85-4.15 38.22-5 38.6-5.85 38.6-6.4L38.6-6.4 38.6-17.05Q38.6-17.5 38.57-17.93 38.55-18.35 38.37-18.7 38.2-19.05 37.85-19.28 37.5-19.5 36.85-19.5L36.85-19.5 36.85-19.95 41.9-21.55ZM64.55-5.7L64.55-5.7Q64.55-4.4 63.9-3.3 63.25-2.2 62.12-1.38 61-0.55 59.5-0.08 58 0.4 56.25 0.4L56.25 0.4Q54.09 0.4 52.75-0.18 51.4-0.75 50.45-1.35L50.45-1.35Q49.8-1.75 49.25-2.02 48.7-2.3 48.05-2.3L48.05-2.3 48.05-6.1 48.55-6.1Q48.7-5.4 49.42-4.58 50.15-3.75 51.17-3.05 52.2-2.35 53.42-1.88 54.65-1.4 55.9-1.4L55.9-1.4Q56.8-1.4 57.75-1.6 58.7-1.8 59.47-2.25 60.25-2.7 60.77-3.38 61.3-4.05 61.3-5L61.3-5Q61.3-5.95 60.75-6.65 60.2-7.35 59.34-7.88 58.5-8.4 57.4-8.8 56.3-9.2 55.2-9.55L55.2-9.55Q53.9-9.95 52.57-10.45 51.25-10.95 50.2-11.63 49.15-12.3 48.5-13.28 47.84-14.25 47.84-15.6L47.84-15.6Q47.84-16.75 48.27-17.8 48.7-18.85 49.67-19.63 50.65-20.4 52.2-20.88 53.75-21.35 55.95-21.35L55.95-21.35Q57.9-21.35 58.97-21.03 60.05-20.7 60.75-20.35L60.75-20.35Q61.2-20.1 61.65-19.98 62.09-19.85 62.65-19.85L62.65-19.85 62.65-16.35 62.25-16.35Q61.34-18 59.5-18.85 57.65-19.7 55.7-19.7L55.7-19.7Q54.45-19.7 53.55-19.38 52.65-19.05 52.07-18.57 51.5-18.1 51.22-17.5 50.95-16.9 50.95-16.3L50.95-16.3Q50.95-15.45 51.42-14.85 51.9-14.25 52.72-13.8 53.55-13.35 54.57-12.95 55.59-12.55 56.75-12.2L56.75-12.2Q58.15-11.75 59.55-11.23 60.95-10.7 62.05-9.95 63.15-9.2 63.84-8.18 64.55-7.15 64.55-5.7ZM76.04 0L69.54 0 69.54-0.5Q69.94-0.5 70.24-0.8 70.54-1.1 70.74-1.5 70.94-1.9 71.04-2.38 71.14-2.85 71.14-3.25L71.14-3.25 71.14-17.1Q71.14-17.95 70.89-18.73 70.64-19.5 69.44-19.55L69.44-19.55 69.44-20 74.44-21.6 74.44-3.25Q74.44-2.85 74.54-2.38 74.64-1.9 74.84-1.5 75.04-1.1 75.34-0.8 75.64-0.5 76.04-0.5L76.04-0.5 76.04 0ZM69.79-26.4L69.79-26.4Q69.79-27.4 70.47-28.1 71.14-28.8 72.14-28.8L72.14-28.8Q73.14-28.8 73.84-28.1 74.54-27.4 74.54-26.4L74.54-26.4Q74.54-25.4 73.84-24.75 73.14-24.1 72.14-24.1L72.14-24.1Q71.14-24.1 70.47-24.75 69.79-25.4 69.79-26.4ZM101.49-12.9L101.49-3.25Q101.49-2.85 101.59-2.38 101.69-1.9 101.92-1.5 102.14-1.1 102.42-0.8 102.69-0.5 103.09-0.5L103.09-0.5 103.09 0 96.64 0 96.64-0.5Q96.99-0.5 97.29-0.8 97.59-1.1 97.81-1.5 98.04-1.9 98.14-2.38 98.24-2.85 98.24-3.25L98.24-3.25 98.24-12.55Q98.24-14.35 97.74-15.7 97.24-17.05 96.39-17.95 95.54-18.85 94.47-19.28 93.39-19.7 92.29-19.7L92.29-19.7Q91.19-19.7 90.12-19.25 89.04-18.8 88.22-18.07 87.39-17.35 86.86-16.38 86.34-15.4 86.34-14.35L86.34-14.35 86.34-3.25Q86.34-2.85 86.44-2.38 86.54-1.9 86.77-1.5 86.99-1.1 87.27-0.8 87.54-0.5 87.94-0.5L87.94-0.5 87.94 0 81.44 0 81.44-0.5Q81.79-0.5 82.09-0.8 82.39-1.1 82.61-1.5 82.84-1.9 82.94-2.38 83.04-2.85 83.04-3.25L83.04-3.25 83.04-17.05Q83.04-17.9 82.79-18.68 82.54-19.45 81.34-19.5L81.34-19.5 81.34-19.95 86.34-21.55 86.34-18.8Q86.69-19.2 87.24-19.68 87.79-20.15 88.56-20.58 89.34-21 90.37-21.28 91.39-21.55 92.79-21.55L92.79-21.55Q95.14-21.55 96.79-20.75 98.44-19.95 99.49-18.68 100.54-17.4 101.02-15.88 101.49-14.35 101.49-12.9L101.49-12.9ZM118.39 9.3L118.39 9.3Q119.89 9.3 121.24 9.03 122.59 8.75 123.61 8.25 124.64 7.75 125.24 7.05 125.84 6.35 125.84 5.55L125.84 5.55Q125.84 4.7 125.01 4.1 124.19 3.5 122.79 3.05 121.39 2.6 119.54 2.27 117.69 1.95 115.69 1.6L115.69 1.6 113.14 1.15Q111.99 2.05 111.54 3.05 111.09 4.05 111.09 4.8L111.09 4.8Q111.09 5.85 111.66 6.68 112.24 7.5 113.21 8.1 114.19 8.7 115.51 9 116.84 9.3 118.39 9.3ZM114.89-1.7L121.14-0.7Q123.14-0.4 124.46 0.1 125.79 0.6 126.59 1.28 127.39 1.95 127.69 2.78 127.99 3.6 127.99 4.55L127.99 4.55Q127.99 6.25 127.06 7.5 126.14 8.75 124.66 9.58 123.19 10.4 121.31 10.8 119.44 11.2 117.49 11.2L117.49 11.2Q115.59 11.2 113.84 10.83 112.09 10.45 110.74 9.7 109.39 8.95 108.59 7.83 107.79 6.7 107.79 5.25L107.79 5.25Q107.79 3.95 108.59 2.78 109.39 1.6 111.19 0.45L111.19 0.45Q109.44-0.45 108.51-1.98 107.59-3.5 107.59-5.1L107.59-5.1Q107.59-6.05 108.04-6.98 108.49-7.9 109.49-8.7L109.49-8.7Q108.64-9.7 108.29-10.7 107.94-11.7 107.94-12.85L107.94-12.85Q107.94-14.65 108.69-16.2 109.44-17.75 110.74-18.9 112.04-20.05 113.79-20.7 115.54-21.35 117.54-21.35L117.54-21.35Q119.64-21.35 121.54-20.63 123.44-19.9 124.74-18.75L124.74-18.75 128.34-18.75 128.34-16.95 126.04-16.95Q126.39-16.2 126.74-15.18 127.09-14.15 127.09-13.05L127.09-13.05Q127.09-11.45 126.34-10.03 125.59-8.6 124.26-7.53 122.94-6.45 121.16-5.83 119.39-5.2 117.39-5.2L117.39-5.2Q115.54-5.2 113.79-5.75 112.04-6.3 110.69-7.35L110.69-7.35Q110.14-7 109.94-6.48 109.74-5.95 109.74-5.4L109.74-5.4Q109.74-3.8 111.19-2.93 112.64-2.05 114.89-1.7L114.89-1.7ZM116.94-19.6L116.94-19.6Q115.74-19.6 114.69-19.18 113.64-18.75 112.84-18 112.04-17.25 111.56-16.18 111.09-15.1 111.09-13.75L111.09-13.75Q111.09-12.1 111.76-10.8 112.44-9.5 113.49-8.65 114.54-7.8 115.81-7.35 117.09-6.9 118.24-6.9L118.24-6.9Q119.49-6.9 120.51-7.38 121.54-7.85 122.29-8.68 123.04-9.5 123.44-10.6 123.84-11.7 123.84-12.9L123.84-12.9Q123.84-14.4 123.24-15.65 122.64-16.9 121.66-17.78 120.69-18.65 119.44-19.13 118.19-19.6 116.94-19.6ZM164.18-5.7L164.18-1.8Q163.78-1.8 163.43-1.63 163.08-1.45 162.63-1.2L162.63-1.2Q161.78-0.7 160.48-0.18 159.18 0.35 157.08 0.35L157.08 0.35Q154.53 0.35 152.36-0.48 150.18-1.3 148.61-2.78 147.03-4.25 146.16-6.23 145.28-8.2 145.28-10.5L145.28-10.5Q145.28-12.65 146.06-14.6 146.83-16.55 148.28-18.05 149.73-19.55 151.86-20.45 153.98-21.35 156.68-21.35L156.68-21.35Q158.53-21.35 159.68-20.93 160.83-20.5 161.63-20.1L161.63-20.1Q162.08-19.85 162.51-19.7 162.93-19.55 163.38-19.55L163.38-19.55 163.38-15.75 162.88-15.75Q162.63-16.7 161.98-17.43 161.33-18.15 160.48-18.65 159.63-19.15 158.63-19.4 157.63-19.65 156.68-19.65L156.68-19.65Q154.63-19.65 153.08-18.93 151.53-18.2 150.53-17.03 149.53-15.85 149.03-14.35 148.53-12.85 148.53-11.25L148.53-11.25Q148.53-9.4 149.13-7.63 149.73-5.85 150.86-4.45 151.98-3.05 153.58-2.2 155.18-1.35 157.18-1.35L157.18-1.35Q158.58-1.35 159.76-1.75 160.93-2.15 161.76-2.8 162.58-3.45 163.08-4.23 163.58-5 163.68-5.7L163.68-5.7 164.18-5.7ZM181.23-20.4L179.73-17.35Q179.13-18.35 178.48-18.6 177.83-18.85 176.98-18.85L176.98-18.85Q176.43-18.85 175.81-18.6 175.18-18.35 174.58-17.95 173.98-17.55 173.41-17.07 172.83-16.6 172.43-16.2L172.43-16.2 172.43-3.2Q172.43-2.8 172.53-2.35 172.63-1.9 172.86-1.48 173.08-1.05 173.36-0.78 173.63-0.5 174.03-0.5L174.03-0.5 174.03 0 167.53 0 167.53-0.5Q167.88-0.5 168.18-0.78 168.48-1.05 168.71-1.48 168.93-1.9 169.03-2.35 169.13-2.8 169.13-3.2L169.13-3.2 169.13-17.15Q169.13-17.85 168.68-18.55 168.23-19.25 167.38-19.45L167.38-19.45 167.38-19.85 172.43-21.35 172.43-18.35Q172.88-18.9 173.38-19.43 173.88-19.95 174.51-20.38 175.13-20.8 175.88-21.08 176.63-21.35 177.63-21.35L177.63-21.35Q178.33-21.35 179.43-21.05 180.53-20.75 181.23-20.4L181.23-20.4ZM204.48-10.1L187.13-10.1Q187.33-8.35 187.98-6.78 188.63-5.2 189.7-4 190.78-2.8 192.33-2.08 193.88-1.35 195.93-1.35L195.93-1.35Q197.03-1.35 198.25-1.68 199.48-2 200.53-2.6 201.58-3.2 202.4-4.08 203.23-4.95 203.53-6.05L203.53-6.05 203.98-6.05 203.98-2.3Q203.68-2.3 203.3-2.1 202.93-1.9 202.43-1.6L202.43-1.6Q201.43-1 199.73-0.33 198.03 0.35 195.23 0.35L195.23 0.35Q192.98 0.35 190.95-0.3 188.93-0.95 187.38-2.3 185.83-3.65 184.9-5.75 183.98-7.85 183.98-10.75L183.98-10.75Q183.98-12.6 184.6-14.5 185.23-16.4 186.5-17.93 187.78-19.45 189.78-20.4 191.78-21.35 194.58-21.35L194.58-21.35Q197.08-21.35 198.95-20.5 200.83-19.65 202.05-18.15 203.28-16.65 203.88-14.6 204.48-12.55 204.48-10.1L204.48-10.1ZM194.38-19.7L194.38-19.7Q192.63-19.7 191.35-19 190.08-18.3 189.18-17.2 188.28-16.1 187.78-14.7 187.28-13.3 187.13-11.9L187.13-11.9 201.38-11.9Q201.33-13.35 200.85-14.75 200.38-16.15 199.53-17.25 198.68-18.35 197.38-19.03 196.08-19.7 194.38-19.7ZM225.33 0L220.48 0 220.48-2.55 220.23-2.3Q218.98-1.05 217.35-0.35 215.73 0.35 213.43 0.35L213.43 0.35Q211.68 0.35 210.43-0.05 209.18-0.45 208.38-1.18 207.58-1.9 207.2-2.85 206.83-3.8 206.83-4.85L206.83-4.85Q206.83-6.55 207.75-7.85 208.68-9.15 210.43-10.15 212.18-11.15 214.7-11.98 217.23-12.8 220.48-13.6L220.48-13.6Q220.38-15.55 219.68-16.75 218.98-17.95 218.03-18.63 217.08-19.3 216.03-19.53 214.98-19.75 214.23-19.75L214.23-19.75Q212.93-19.75 211.95-19.35 210.98-18.95 210.25-18.32 209.53-17.7 209.03-16.98 208.53-16.25 208.23-15.6L208.23-15.6 207.78-15.6 207.78-19.25Q208.18-19.3 208.53-19.5 208.88-19.7 209.38-19.9L209.38-19.9Q210.13-20.2 211.43-20.78 212.73-21.35 215.08-21.35L215.08-21.35Q217.83-21.35 219.53-20.65 221.23-19.95 222.15-18.8 223.08-17.65 223.38-16.18 223.68-14.7 223.68-13.15L223.68-13.15 223.68-3.25Q223.68-2.25 224.13-1.38 224.58-0.5 225.33-0.5L225.33-0.5 225.33 0ZM219.93-4.15L220.48-4.75 220.48-11.9 219.98-11.8Q218.78-11.5 217.05-11 215.33-10.5 213.78-9.7 212.23-8.9 211.13-7.8 210.03-6.7 210.03-5.25L210.03-5.25Q210.03-3.65 211.33-2.6 212.63-1.55 214.73-1.55L214.73-1.55Q216.38-1.55 217.63-2.27 218.88-3 219.93-4.15L219.93-4.15ZM240.62-19.3L235.02-19.3 235.02-7.25Q235.02-5.95 235.07-4.9 235.12-3.85 235.32-3.15 235.52-2.45 235.92-2.08 236.32-1.7 237.02-1.7L237.02-1.7Q238.07-1.7 239-2.7 239.92-3.7 240.17-5.1L240.17-5.1 240.62-5.1 240.62-1.45Q240.17-1.45 239.87-1.15L239.87-1.15Q239.47-0.8 238.75-0.4 238.02 0 236.57 0L236.57 0Q234.77 0 233.77-0.7 232.77-1.4 232.32-2.55 231.87-3.7 231.8-5.1 231.72-6.5 231.72-7.95L231.72-7.95 231.72-19.3 228.92-19.3 228.92-21 231.72-21 231.72-25.45Q231.72-26.3 231.5-27.03 231.27-27.75 230.02-27.8L230.02-27.8 230.02-28.3 235.02-29.9 235.02-21 240.62-21 240.62-19.3ZM251.57 0L245.07 0 245.07-0.5Q245.47-0.5 245.77-0.8 246.07-1.1 246.27-1.5 246.47-1.9 246.57-2.38 246.67-2.85 246.67-3.25L246.67-3.25 246.67-17.1Q246.67-17.95 246.42-18.73 246.17-19.5 244.97-19.55L244.97-19.55 244.97-20 249.97-21.6 249.97-3.25Q249.97-2.85 250.07-2.38 250.17-1.9 250.37-1.5 250.57-1.1 250.87-0.8 251.17-0.5 251.57-0.5L251.57-0.5 251.57 0ZM245.32-26.4L245.32-26.4Q245.32-27.4 246-28.1 246.67-28.8 247.67-28.8L247.67-28.8Q248.67-28.8 249.37-28.1 250.07-27.4 250.07-26.4L250.07-26.4Q250.07-25.4 249.37-24.75 248.67-24.1 247.67-24.1L247.67-24.1Q246.67-24.1 246-24.75 245.32-25.4 245.32-26.4ZM272.22-21L277.12-21 277.12-20.5Q276.77-20.5 276.42-20.25 276.07-20 275.74-19.6 275.42-19.2 275.14-18.73 274.87-18.25 274.67-17.85L274.67-17.85 266.07 0.85 257.52-18.05Q257.17-18.85 256.62-19.68 256.07-20.5 255.22-20.5L255.22-20.5 255.22-21 262.07-21 262.07-20.5Q261.77-20.5 261.29-20.2 260.82-19.9 260.82-19.35L260.82-19.35Q260.82-19.1 261.22-18.2L261.22-18.2 266.97-5.25 273.17-18.75Q273.37-19.25 273.37-19.5L273.37-19.5Q273.37-19.95 272.94-20.23 272.52-20.5 272.22-20.5L272.22-20.5 272.22-21ZM287.42 0L280.92 0 280.92-0.5Q281.32-0.5 281.62-0.8 281.92-1.1 282.12-1.5 282.32-1.9 282.42-2.38 282.52-2.85 282.52-3.25L282.52-3.25 282.52-17.1Q282.52-17.95 282.27-18.73 282.02-19.5 280.82-19.55L280.82-19.55 280.82-20 285.82-21.6 285.82-3.25Q285.82-2.85 285.92-2.38 286.02-1.9 286.22-1.5 286.42-1.1 286.72-0.8 287.02-0.5 287.42-0.5L287.42-0.5 287.42 0ZM281.17-26.4L281.17-26.4Q281.17-27.4 281.84-28.1 282.52-28.8 283.52-28.8L283.52-28.8Q284.52-28.8 285.22-28.1 285.92-27.4 285.92-26.4L285.92-26.4Q285.92-25.4 285.22-24.75 284.52-24.1 283.52-24.1L283.52-24.1Q282.52-24.1 281.84-24.75 281.17-25.4 281.17-26.4ZM303.26-19.3L297.66-19.3 297.66-7.25Q297.66-5.95 297.71-4.9 297.76-3.85 297.96-3.15 298.16-2.45 298.56-2.08 298.96-1.7 299.66-1.7L299.66-1.7Q300.71-1.7 301.64-2.7 302.56-3.7 302.81-5.1L302.81-5.1 303.26-5.1 303.26-1.45Q302.81-1.45 302.51-1.15L302.51-1.15Q302.11-0.8 301.39-0.4 300.66 0 299.21 0L299.21 0Q297.41 0 296.41-0.7 295.41-1.4 294.96-2.55 294.51-3.7 294.44-5.1 294.36-6.5 294.36-7.95L294.36-7.95 294.36-19.3 291.56-19.3 291.56-21 294.36-21 294.36-25.45Q294.36-26.3 294.14-27.03 293.91-27.75 292.66-27.8L292.66-27.8 292.66-28.3 297.66-29.9 297.66-21 303.26-21 303.26-19.3ZM325.31-18.3L315.01 7.15Q314.31 9.25 313.24 10 312.16 10.75 311.01 10.75L311.01 10.75Q310.26 10.75 309.69 10.55 309.11 10.35 308.69 10.08 308.26 9.8 308.01 9.55 307.76 9.3 307.71 9.15L307.71 9.15 309.36 5.1Q309.61 6 309.86 6.45L309.86 6.45Q310.11 6.95 310.56 7.35 311.01 7.75 311.66 7.75L311.66 7.75Q312.86 7.75 313.56 6L313.56 6 316.01-0.15 307.96-18.35Q307.71-18.95 307.14-19.73 306.56-20.5 305.56-20.5L305.56-20.5 305.56-21 312.16-21 312.16-20.5Q311.96-20.5 311.66-20.15 311.36-19.8 311.36-19.25L311.36-19.25Q311.36-18.8 311.56-18.45L311.56-18.45 317.71-4.3 323.61-18.75Q323.76-19.1 323.76-19.4L323.76-19.4Q323.76-19.9 323.44-20.2 323.11-20.5 322.76-20.5L322.76-20.5 322.76-21 327.61-21 327.61-20.5Q326.81-20.5 326.24-19.83 325.66-19.15 325.31-18.3L325.31-18.3ZM374.36-21L374.36-20.5Q373.46-20.5 372.98-20 372.51-19.5 372.11-18.5L372.11-18.5 364.56 0.4 358.11-15.4 351.71 0.35 344.31-17.95Q343.96-18.8 343.43-19.65 342.91-20.5 342.06-20.5L342.06-20.5 342.06-21 348.91-21 348.91-20.5Q348.56-20.5 348.03-20.18 347.51-19.85 347.51-19.1L347.51-19.1Q347.51-19 347.58-18.68 347.66-18.35 347.76-18.1L347.76-18.1 352.66-6 358.96-21.55 365.31-6 370.26-18.3Q370.51-19.05 370.51-19.35L370.51-19.35Q370.51-19.75 370.26-20.1 370.01-20.45 369.41-20.5L369.41-20.5 369.41-21 374.36-21ZM384.6 0L378.1 0 378.1-0.5Q378.5-0.5 378.8-0.8 379.1-1.1 379.3-1.5 379.5-1.9 379.6-2.38 379.7-2.85 379.7-3.25L379.7-3.25 379.7-17.1Q379.7-17.95 379.45-18.73 379.2-19.5 378-19.55L378-19.55 378-20 383-21.6 383-3.25Q383-2.85 383.1-2.38 383.2-1.9 383.4-1.5 383.6-1.1 383.9-0.8 384.2-0.5 384.6-0.5L384.6-0.5 384.6 0ZM378.35-26.4L378.35-26.4Q378.35-27.4 379.03-28.1 379.7-28.8 380.7-28.8L380.7-28.8Q381.7-28.8 382.4-28.1 383.1-27.4 383.1-26.4L383.1-26.4Q383.1-25.4 382.4-24.75 381.7-24.1 380.7-24.1L380.7-24.1Q379.7-24.1 379.03-24.75 378.35-25.4 378.35-26.4ZM400.45-19.3L394.85-19.3 394.85-7.25Q394.85-5.95 394.9-4.9 394.95-3.85 395.15-3.15 395.35-2.45 395.75-2.08 396.15-1.7 396.85-1.7L396.85-1.7Q397.9-1.7 398.83-2.7 399.75-3.7 400-5.1L400-5.1 400.45-5.1 400.45-1.45Q400-1.45 399.7-1.15L399.7-1.15Q399.3-0.8 398.58-0.4 397.85 0 396.4 0L396.4 0Q394.6 0 393.6-0.7 392.6-1.4 392.15-2.55 391.7-3.7 391.63-5.1 391.55-6.5 391.55-7.95L391.55-7.95 391.55-19.3 388.75-19.3 388.75-21 391.55-21 391.55-25.45Q391.55-26.3 391.33-27.03 391.1-27.75 389.85-27.8L389.85-27.8 389.85-28.3 394.85-29.9 394.85-21 400.45-21 400.45-19.3ZM424.3-12.9L424.3-3.25Q424.3-2.85 424.4-2.38 424.5-1.9 424.72-1.5 424.95-1.1 425.22-0.8 425.5-0.5 425.9-0.5L425.9-0.5 425.9 0 419.45 0 419.45-0.5Q419.8-0.5 420.1-0.8 420.4-1.1 420.62-1.5 420.85-1.9 420.95-2.38 421.05-2.85 421.05-3.25L421.05-3.25 421.05-12.55Q421.05-14.35 420.55-15.7 420.05-17.05 419.2-17.95 418.35-18.85 417.27-19.28 416.2-19.7 415.1-19.7L415.1-19.7Q414-19.7 412.92-19.28 411.85-18.85 411.02-18.1 410.2-17.35 409.67-16.28 409.15-15.2 409.15-13.9L409.15-13.9 409.15-3.25Q409.15-2.85 409.25-2.38 409.35-1.9 409.57-1.5 409.8-1.1 410.07-0.8 410.35-0.5 410.75-0.5L410.75-0.5 410.75 0 404.25 0 404.25-0.5Q404.6-0.5 404.9-0.8 405.2-1.1 405.42-1.5 405.65-1.9 405.75-2.38 405.85-2.85 405.85-3.25L405.85-3.25 405.85-28.8Q405.85-29.65 405.6-30.4 405.35-31.15 404.15-31.2L404.15-31.2 404.15-31.7 409.15-33.25 409.15-18.8Q409.5-19.2 410.05-19.68 410.6-20.15 411.37-20.58 412.15-21 413.17-21.28 414.2-21.55 415.6-21.55L415.6-21.55Q417.95-21.55 419.6-20.75 421.25-19.95 422.3-18.68 423.35-17.4 423.82-15.88 424.3-14.35 424.3-12.9L424.3-12.9ZM462.89 0L462.89-0.5 463.14-0.5Q464.34-0.5 464.34-1.6L464.34-1.6Q464.34-2 464.19-2.45L464.19-2.45 459.69-14.6 450.94-14.6 446.59-2.65Q446.44-2.25 446.44-1.9L446.44-1.9Q446.44-1.25 446.79-0.88 447.14-0.5 447.54-0.5L447.54-0.5 447.79-0.5 447.79 0 442.24 0 442.24-0.5 442.49-0.5Q443.14-0.5 443.77-1.28 444.39-2.05 444.79-3.1L444.79-3.1 456.24-33.6 467.44-3.4Q467.79-2.4 468.42-1.45 469.04-0.5 470.04-0.5L470.04-0.5 470.29-0.5 470.29 0 462.89 0ZM455.29-26.75L451.44-16.3 459.14-16.3 455.29-26.75ZM473.49-32.5L473.49-33 480.64-33 480.64-32.5 480.39-32.5Q480.04-32.5 479.74-32.23 479.44-31.95 479.24-31.58 479.04-31.2 478.92-30.73 478.79-30.25 478.79-29.9L478.79-29.9 478.79-3.25Q478.79-2.85 478.89-2.38 478.99-1.9 479.22-1.5 479.44-1.1 479.72-0.8 479.99-0.5 480.39-0.5L480.39-0.5 480.64-0.5 480.64 0 473.49 0 473.49-0.5 473.74-0.5Q474.14-0.5 474.44-0.78 474.74-1.05 474.97-1.48 475.19-1.9 475.29-2.38 475.39-2.85 475.39-3.25L475.39-3.25 475.39-29.9Q475.39-30.25 475.29-30.7 475.19-31.15 474.97-31.55 474.74-31.95 474.44-32.23 474.14-32.5 473.74-32.5L473.74-32.5 473.49-32.5Z" opacity="1" transform="matrix(1,0,0,1,0,0)" fill="#ffffff" class="undefined-text-1" data-fill-palette-color="secondary" id="text-1"></path></svg></g></svg></g></svg></g></svg></g></svg></g></svg></g><g mask="url(#29789d62-4cc5-4bcb-bd0e-2e58b69341ae)"><g transform="matrix(2.7244444444444444, 0, 0, 2.7244444444444444, 90.96177569919162, 1)"><svg xmlns="http://www.w3.org/2000/svg" xmlns:xlink="http://www.w3.org/1999/xlink" version="1.1" x="0" y="0" viewBox="10.100000381469727 5.199999809265137 78.4000015258789 90" enable-background="new 0 0 100 100" xml:space="preserve" height="90" width="78.4000015258789" class="icon-none" data-fill-palette-color="accent" id="none"><polygon fill-rule="evenodd" clip-rule="evenodd" fill="#ed2647" points="88.5,28.2 68.4,59.9 68.5,22.3 " data-fill-palette-color="accent"></polygon><polygon fill-rule="evenodd" clip-rule="evenodd" fill="#ed2647" points="49.8,5.2 67.2,38.5 34.7,19.6 " data-fill-palette-color="accent"></polygon><polygon fill-rule="evenodd" clip-rule="evenodd" fill="#ed2647" points="67.8,38.3 67.8,22.3 60.8,24.5 " data-fill-palette-color="accent"></polygon><polygon fill-rule="evenodd" clip-rule="evenodd" fill="#ed2647" points="88.2,73.2 50.6,71.7 83.2,52.9 " data-fill-palette-color="accent"></polygon><polygon fill-rule="evenodd" clip-rule="evenodd" fill="#ed2647" points="69.1,60.3 82.8,52.3 77.4,47.4 " data-fill-palette-color="accent"></polygon><polygon fill-rule="evenodd" clip-rule="evenodd" fill="#ed2647" points="48.7,95.2 31.5,61.9 63.9,80.9 " data-fill-palette-color="accent"></polygon><polygon fill-rule="evenodd" clip-rule="evenodd" fill="#ed2647" points="50.5,72.2 64.2,80.2 65.8,73.1 " data-fill-palette-color="accent"></polygon><polygon fill-rule="evenodd" clip-rule="evenodd" fill="#ed2647" points="10.1,72 30.5,40.4 30.1,78 " data-fill-palette-color="accent"></polygon><polygon fill-rule="evenodd" clip-rule="evenodd" fill="#ed2647" points="30.9,62.1 30.8,78 37.8,75.8 " data-fill-palette-color="accent"></polygon><polygon fill-rule="evenodd" clip-rule="evenodd" fill="#ed2647" points="11,27 48.5,28.9 15.8,47.3 " data-fill-palette-color="accent"></polygon><polygon fill-rule="evenodd" clip-rule="evenodd" fill="#ed2647" points="30,40.1 16.1,47.9 21.5,52.9 " data-fill-palette-color="accent"></polygon><polygon fill-rule="evenodd" clip-rule="evenodd" fill="#ed2647" points="48.2,28.3 34.5,20.2 32.9,27.4 " data-fill-palette-color="accent"></polygon></svg></g></g></svg></g><defs><mask id="a40df85e-42a3-4274-841f-1f7cfaf6ccf7"><rect width="640" height="400" fill="white"></rect><rect width="348.05760000000004" height="106.92454664121946" fill="black" x="145.97119999999998" y="146.53772667939026" id="transform-me" transform="matrix(1,0,0,1,-122.24000000000001,-76.4)"></rect></mask><mask id="112edcc0-b00e-4cbd-a74f-17ee3edcccfe"><rect width="640" height="400" fill="white"></rect><rect width="348.05760000000004" height="106.92454664121946" fill="black" x="145.97119999999998" y="146.53772667939026" id="transform-me" transform="matrix(1,0,0,1,-122.24000000000001,-76.4)"></rect></mask><mask id="cb07865f-1403-4cdf-9909-42981dfae546"><rect width="640" height="400" fill="white"></rect><rect width="232.0384" height="71.28303109414631" fill="black" x="203.9808" y="164.35848445292686" id="transform-me" transform="matrix(1,0,0,1,-122.24000000000001,-76.4)"></rect></mask><mask id="4acb2d5e-7aa4-4a90-914c-27f50a46e7fe"><rect width="640" height="400" fill="white"></rect><rect width="174.02880000000002" height="53.46227332060973" fill="black" x="232.98559999999998" y="173.26886333969514" id="transform-me" transform="matrix(1,0,0,1,-122.24000000000001,-76.4)"></rect></mask><mask id="5fceb2e8-03fc-452c-b815-b8f4aef49bd9"><rect width="640" height="400" fill="white"></rect><rect width="348.05760000000004" height="106.92454664121946" fill="black" x="145.97119999999998" y="146.53772667939026" id="transform-me" transform="matrix(1,0,0,1,-122.24000000000001,-76.4)"></rect></mask><mask id="64d40e50-80b9-420d-af11-306c12bdb841"><rect width="640" height="400" fill="white"></rect><rect width="435.072" height="133.65568330152433" fill="black" x="102.464" y="133.17215834923783" id="transform-me" transform="matrix(1,0,0,1,-122.24000000000001,-76.4)"></rect></mask><mask id="1971129e-86ad-4b74-a030-9c563bfa2a19"><rect width="640" height="400" fill="white"></rect><rect width="348.05760000000004" height="106.92454664121946" fill="black" x="145.97119999999998" y="146.53772667939026" id="transform-me" transform="matrix(1,0,0,1,-122.24000000000001,-76.4)"></rect></mask><mask id="5244feac-9759-420b-a589-d801f0fd1a4f"><rect width="640" height="400" fill="white"></rect><rect width="232.0384" height="71.28303109414631" fill="black" x="203.9808" y="164.35848445292686" id="transform-me" transform="matrix(1,0,0,1,-122.24000000000001,-76.4)"></rect></mask><mask id="29789d62-4cc5-4bcb-bd0e-2e58b69341ae"><rect width="640" height="400" fill="white"></rect><rect width="348.05760000000004" height="106.92454664121946" fill="black" x="145.97119999999998" y="146.53772667939026" id="transform-me" transform="matrix(1,0,0,1,-122.24000000000001,-76.4)"></rect></mask></defs></svg><rect width="395.52" height="247.2" fill="none" stroke="none" visibility="hidden"></rect></g></svg></g></svg>